<svg xmlns="http://www.w3.org/2000/svg" xmlns:xlink="http://www.w3.org/1999/xlink" width="100" height="100" viewBox="0 0 100 100"><g transform="translate(50 50) scale(0.69 0.69) rotate(-15) translate(-50 -50)" style="fill:#000000"><svg fill="#000000" xmlns="http://www.w3.org/2000/svg" data-name="Layer 1" viewBox="0 0 100 100" x="0px" y="0px"><title>80</title><path d="M5.00024,21.5a2.49981,2.49981,0,0,1,2.5-2.5h7a2.5,2.5,0,1,1,0,5h-7A2.49981,2.49981,0,0,1,5.00024,21.5Zm2.5,21.5h7a2.5,2.5,0,1,0,0-5h-7a2.5,2.5,0,1,0,0,5Zm0,19h7a2.5,2.5,0,1,0,0-5h-7a2.5,2.5,0,0,0,0,5Zm7,23H12.5v3.73413A6.26591,6.26591,0,0,0,18.76587,95h9.29785V5H18.76587A6.26591,6.26591,0,0,0,12.5,11.26587V15h2.00024a6.5,6.5,0,1,1,0,13H12.5v6h2.00024a6.5,6.5,0,1,1,0,13H12.5v6h2.00024a6.5,6.5,0,1,1,0,13H12.5v6h2.00024a6.5,6.5,0,1,1,0,13Zm-7-4h7a2.5,2.5,0,0,0,0-5h-7a2.5,2.5,0,0,0,0,5ZM94.49683,32.574l-6.4646-6.46459a1.71893,1.71893,0,0,0-2.43091,0L49.6936,62.01709a11.15555,11.15555,0,0,0-2.37585,3.50726L42.27612,77.28351A.8006.8006,0,0,0,43.32251,78.33l11.75928-5.04163a11.156,11.156,0,0,0,3.50732-2.37591L94.49683,35.00476A1.719,1.719,0,0,0,94.49683,32.574ZM38.58911,75.7334a4.79709,4.79709,0,0,0,6.30957,6.27295L56.65356,76.9668a15.09041,15.09041,0,0,0,4.76368-3.22559L85.05322,50.105V88.73413A6.266,6.266,0,0,1,78.78711,95H32.06372V5H78.78711a6.266,6.266,0,0,1,6.26611,6.26587V21.9093a5.661,5.661,0,0,0-2.27954,1.37146L46.8645,59.18945a15.10556,15.10556,0,0,0-3.22363,4.75879Zm5.29871-55.97559A1.0932,1.0932,0,0,0,44.981,20.85107H72.136a1.0932,1.0932,0,0,0,1.09314-1.09326V14.66772A1.0932,1.0932,0,0,0,72.136,13.57446H44.981a1.0932,1.0932,0,0,0-1.09314,1.09326Z"></path></svg></g></svg>